<svg width="174" height="40" viewBox="0 0 174 40" fill="none" xmlns="http://www.w3.org/2000/svg">
<path d="M57.4923 21.304C57.4923 19.912 57.7723 18.696 58.3323 17.656C58.9083 16.616 59.7003 15.816 60.7083 15.256C61.7323 14.696 62.9003 14.416 64.2123 14.416C65.8923 14.416 67.2923 14.856 68.4123 15.736C69.5483 16.616 70.2923 17.856 70.6443 19.456H66.2763C65.9083 18.432 65.1963 17.92 64.1403 17.92C63.3883 17.92 62.7883 18.216 62.3403 18.808C61.8923 19.384 61.6683 20.216 61.6683 21.304C61.6683 22.392 61.8923 23.232 62.3403 23.824C62.7883 24.4 63.3883 24.688 64.1403 24.688C65.1963 24.688 65.9083 24.176 66.2763 23.152H70.6443C70.2923 24.72 69.5483 25.952 68.4123 26.848C67.2763 27.744 65.8763 28.192 64.2123 28.192C62.9003 28.192 61.7323 27.912 60.7083 27.352C59.7003 26.792 58.9083 25.992 58.3323 24.952C57.7723 23.912 57.4923 22.696 57.4923 21.304Z" fill="white"/>
<path d="M80.3036 24.52V28H78.2156C76.7276 28 75.5676 27.64 74.7356 26.92C73.9036 26.184 73.4876 24.992 73.4876 23.344V18.016H71.8556V14.608H73.4876V11.344H77.5916V14.608H80.2796V18.016H77.5916V23.392C77.5916 23.792 77.6876 24.08 77.8796 24.256C78.0716 24.432 78.3916 24.52 78.8396 24.52H80.3036Z" fill="white"/>
<path d="M104.763 14.464C106.427 14.464 107.747 14.968 108.723 15.976C109.715 16.984 110.211 18.384 110.211 20.176V28H106.131V20.728C106.131 19.864 105.899 19.2 105.435 18.736C104.987 18.256 104.363 18.016 103.563 18.016C102.763 18.016 102.131 18.256 101.667 18.736C101.219 19.2 100.995 19.864 100.995 20.728V28H96.9155V20.728C96.9155 19.864 96.6835 19.2 96.2195 18.736C95.7715 18.256 95.1475 18.016 94.3475 18.016C93.5475 18.016 92.9155 18.256 92.4515 18.736C92.0035 19.2 91.7795 19.864 91.7795 20.728V28H87.6755V14.608H91.7795V16.288C92.1955 15.728 92.7395 15.288 93.4115 14.968C94.0835 14.632 94.8435 14.464 95.6915 14.464C96.6995 14.464 97.5955 14.68 98.3795 15.112C99.1795 15.544 99.8035 16.16 100.251 16.96C100.715 16.224 101.347 15.624 102.147 15.16C102.947 14.696 103.819 14.464 104.763 14.464Z" fill="white"/>
<path d="M119.178 28.192C117.866 28.192 116.682 27.912 115.626 27.352C114.586 26.792 113.762 25.992 113.154 24.952C112.562 23.912 112.266 22.696 112.266 21.304C112.266 19.928 112.57 18.72 113.178 17.68C113.786 16.624 114.618 15.816 115.674 15.256C116.73 14.696 117.914 14.416 119.226 14.416C120.538 14.416 121.722 14.696 122.778 15.256C123.834 15.816 124.666 16.624 125.274 17.68C125.882 18.72 126.186 19.928 126.186 21.304C126.186 22.68 125.874 23.896 125.25 24.952C124.642 25.992 123.802 26.792 122.73 27.352C121.674 27.912 120.49 28.192 119.178 28.192ZM119.178 24.64C119.962 24.64 120.626 24.352 121.17 23.776C121.73 23.2 122.01 22.376 122.01 21.304C122.01 20.232 121.738 19.408 121.194 18.832C120.666 18.256 120.01 17.968 119.226 17.968C118.426 17.968 117.762 18.256 117.234 18.832C116.706 19.392 116.442 20.216 116.442 21.304C116.442 22.376 116.698 23.2 117.21 23.776C117.738 24.352 118.394 24.64 119.178 24.64Z" fill="white"/>
<path d="M136.523 14.464C138.091 14.464 139.339 14.976 140.267 16C141.211 17.008 141.683 18.4 141.683 20.176V28H137.603V20.728C137.603 19.832 137.371 19.136 136.907 18.64C136.443 18.144 135.819 17.896 135.035 17.896C134.251 17.896 133.627 18.144 133.163 18.64C132.699 19.136 132.467 19.832 132.467 20.728V28H128.363V14.608H132.467V16.384C132.883 15.792 133.443 15.328 134.147 14.992C134.851 14.64 135.643 14.464 136.523 14.464Z" fill="white"/>
<path d="M157.159 21.088C157.159 21.472 157.135 21.872 157.087 22.288H147.799C147.863 23.12 148.127 23.76 148.591 24.208C149.071 24.64 149.655 24.856 150.343 24.856C151.367 24.856 152.079 24.424 152.479 23.56H156.847C156.623 24.44 156.215 25.232 155.623 25.936C155.047 26.64 154.319 27.192 153.439 27.592C152.559 27.992 151.575 28.192 150.487 28.192C149.175 28.192 148.007 27.912 146.983 27.352C145.959 26.792 145.159 25.992 144.583 24.952C144.007 23.912 143.719 22.696 143.719 21.304C143.719 19.912 143.999 18.696 144.559 17.656C145.135 16.616 145.935 15.816 146.959 15.256C147.983 14.696 149.159 14.416 150.487 14.416C151.783 14.416 152.935 14.688 153.943 15.232C154.951 15.776 155.735 16.552 156.295 17.56C156.871 18.568 157.159 19.744 157.159 21.088ZM152.959 20.008C152.959 19.304 152.719 18.744 152.239 18.328C151.759 17.912 151.159 17.704 150.439 17.704C149.751 17.704 149.167 17.904 148.687 18.304C148.223 18.704 147.935 19.272 147.823 20.008H152.959Z" fill="white"/>
<path d="M173.004 14.608L164.604 34.36H160.188L163.26 27.544L157.812 14.608H162.396L165.492 22.984L168.564 14.608H173.004Z" fill="white"/>
<circle cx="20" cy="20" r="19.5" fill="#1CA980" stroke="#1CA980"/>
<path d="M20.8001 18.1667C17.0168 17.1833 15.8001 16.1667 15.8001 14.5833C15.8001 12.7667 17.4834 11.5 20.3001 11.5C23.2668 11.5 24.3668 12.9167 24.4668 15H28.1501C28.0334 12.1333 26.2834 9.5 22.8001 8.65V5H17.8001V8.6C14.5668 9.3 11.9668 11.4 11.9668 14.6167C11.9668 18.4667 15.1501 20.3833 19.8001 21.5C23.9668 22.5 24.8001 23.9667 24.8001 25.5167C24.8001 26.6667 23.9834 28.5 20.3001 28.5C16.8668 28.5 15.5168 26.9667 15.3334 25H11.6668C11.8668 28.65 14.6001 30.7 17.8001 31.3833V35H22.8001V31.4167C26.0501 30.8 28.6334 28.9167 28.6334 25.5C28.6334 20.7667 24.5834 19.15 20.8001 18.1667Z" fill="#EBF2F0"/>
</svg>
