<svg width="17" height="30" viewBox="0 0 17 30" fill="none" xmlns="http://www.w3.org/2000/svg">
<path d="M9.13333 13.1667C5.35 12.1833 4.13333 11.1667 4.13333 9.58333C4.13333 7.76667 5.81667 6.5 8.63333 6.5C11.6 6.5 12.7 7.91667 12.8 10H16.4833C16.3667 7.13333 14.6167 4.5 11.1333 3.65V0H6.13333V3.6C2.9 4.3 0.3 6.4 0.3 9.61667C0.3 13.4667 3.48333 15.3833 8.13333 16.5C12.3 17.5 13.1333 18.9667 13.1333 20.5167C13.1333 21.6667 12.3167 23.5 8.63333 23.5C5.2 23.5 3.85 21.9667 3.66667 20H0C0.2 23.65 2.93333 25.7 6.13333 26.3833V30H11.1333V26.4167C14.3833 25.8 16.9667 23.9167 16.9667 20.5C16.9667 15.7667 12.9167 14.15 9.13333 13.1667Z" fill="#EBF2F0"/>
</svg>
